<?xml version="1.0" standalone="no"?>
<!DOCTYPE svg PUBLIC "-//W3C//DTD SVG 20010904//EN"
 "http://www.w3.org/TR/2001/REC-SVG-20010904/DTD/svg10.dtd">
<svg version="1.0" xmlns="http://www.w3.org/2000/svg"
 width="228.000000pt" height="228.000000pt" viewBox="0 0 228.000000 228.000000"
 preserveAspectRatio="xMidYMid meet">
<metadata>
Created by potrace 1.11, written by Peter Selinger 2001-2013
</metadata>
<g transform="translate(0.000000,228.000000) scale(0.100000,-0.100000)"
fill="#000000" stroke="none">
<path d="M1131 2044 c-133 -23 -259 -73 -386 -153 -83 -52 -235 -202 -289
-284 -105 -162 -173 -365 -172 -517 l1 -55 118 0 117 0 0 -35 c2 -176 88 -378
221 -518 93 -97 198 -162 339 -207 75 -24 101 -28 220 -29 150 -1 215 12 333
66 l67 31 -36 64 c-80 144 -80 144 -62 154 58 32 138 117 184 194 51 88 68
158 68 275 0 100 -6 133 -40 215 -33 80 -33 75 -2 94 15 9 58 35 98 59 45 28
68 47 64 55 -21 35 -74 98 -123 146 -109 106 -248 177 -402 206 -48 9 -91 15
-95 14 -43 -7 -44 -4 -44 121 l0 121 -56 -3 c-31 -2 -86 -8 -123 -14z"/>
</g>
</svg>
